<svg width="518" height="518" viewBox="0 0 518 518" fill="none" xmlns="http://www.w3.org/2000/svg">
<rect width="518" height="518" fill="white"/>
<path d="M102.408 340.993L199.204 256.626L156.149 300.462C148.45 307.848 130.088 325.374 118.232 336.39C103.413 350.16 102.519 357.658 101.031 360.234C99.544 362.81 100.832 363.553 102.598 367.435C104.364 371.317 113.725 381.874 135.223 401.156C152.422 416.581 175.636 426.014 185.094 428.803C197.671 432.401 208.108 425.298 211.753 421.297C220.478 409.16 232.24 380.459 235.519 373.193C239.618 364.11 249.485 344.046 252.066 330.652C254.646 317.258 252.022 312.88 248.193 302.656C245.072 294.321 225.131 273.612 217.964 266.608C216.359 265.288 215.45 264.433 215.404 264.261C215.371 264.136 216.339 265.02 217.964 266.608C222.677 270.483 233.397 278.366 245.936 284.751C262.747 293.312 272.277 293.662 293.603 282.504C310.664 273.577 335.813 249.055 346.255 237.91C382.551 206.772 347.048 183.985 344.043 182.25C292.031 146.725 249.357 103.539 234.521 86.3871C259.569 109.435 307.425 144.736 337.559 160.76C375.226 180.79 427.048 198.115 430.749 195.672C433.709 193.718 438.536 186.811 440.58 183.602C439.56 187.02 436.629 195.403 433.059 201.586C385.228 254.687 340.575 284.435 322.701 293.579C308.402 300.894 293.718 302.797 288.163 302.834C283.63 326.549 273.121 380.247 267.352 405.31C260.141 436.639 259.18 445.244 247.583 453.432C235.986 461.621 198.151 451.798 173.231 441.418C148.311 431.038 100.26 395.281 92.3554 375.261C86.0315 359.245 96.4224 345.742 102.408 340.993Z" fill="black"/>
<path d="M221.641 78.9506C206.871 126.677 183.341 228.576 204.821 251.854C189.702 222.516 212.942 112.856 221.641 78.9506Z" fill="black"/>
<path d="M283.913 110.897C183.98 38.0872 250.561 60.9186 296.343 81.4355C284.882 77.4899 261.138 69.2385 257.848 67.7972C253.736 65.9956 226.833 59.0502 251.155 79.3895C275.477 99.7288 263.225 89.2206 279.341 101.96C292.234 112.151 331.445 134.332 349.439 144.148C500.573 216.521 381.928 129.52 353.826 111.761C378.051 126.32 407.972 145.885 429.585 166.95C446.876 183.802 434.122 183.881 425.584 181.813C370.804 165.643 334.576 140.147 283.913 110.897Z" fill="black"/>
</svg>
