<svg width="400" height="400" viewBox="0 0 400 400" fill="none" xmlns="http://www.w3.org/2000/svg">
<path fill-rule="evenodd" clip-rule="evenodd" d="M73 0C32.6832 0 0 32.6832 0 73V327C0 367.317 32.6832 400 73 400H327C367.317 400 400 367.317 400 327V73C400 32.6832 367.317 0 327 0H73ZM233.113 60.8433C199.419 45.7436 150.418 28.9406 223.965 82.5255C231.128 86.6607 237.898 90.6938 244.448 94.596L244.449 94.5962C271.999 111.008 295.658 125.103 328.23 134.718C334.513 136.239 343.9 136.181 331.175 123.779C315.268 108.276 293.247 93.8765 275.419 83.162C296.101 96.2317 383.419 160.262 272.19 106.998C258.947 99.7731 230.089 83.4489 220.601 75.9484C216.116 72.4037 214.616 71.3047 213.518 70.4997L213.517 70.4995L213.517 70.4994C211.71 69.1754 210.988 68.6463 199.857 59.3375C181.957 44.3685 201.756 49.4801 204.782 50.806C207.203 51.8668 224.678 57.9395 233.113 60.8433ZM178.135 59.0145C167.265 94.1393 149.948 169.133 165.757 186.265C154.629 164.674 171.733 83.9674 178.135 59.0145ZM90.3845 251.868L161.623 189.777L129.936 222.039C124.269 227.475 110.756 240.373 102.03 248.48C93.1112 256.768 91.0458 261.968 89.9906 264.625C89.7555 265.217 89.5705 265.683 89.3711 266.028C88.5385 267.471 88.8877 268.132 89.6745 269.624C89.9221 270.093 90.2131 270.645 90.5242 271.329C91.8239 274.185 98.7135 281.955 114.535 296.145C127.193 307.498 144.278 314.441 151.238 316.493C160.495 319.141 168.175 313.913 170.858 310.969C176.234 303.49 183.178 287.466 186.711 279.309L186.712 279.309C187.399 277.724 187.957 276.436 188.349 275.566C188.773 274.626 189.282 273.526 189.847 272.302L189.848 272.299L189.858 272.279L189.858 272.278C193.314 264.799 198.896 252.719 200.527 244.257C202.221 235.464 200.867 231.951 198.555 225.953C198.275 225.227 197.981 224.465 197.677 223.653C195.38 217.519 180.704 202.278 175.43 197.123C178.898 199.975 186.787 205.777 196.016 210.476C208.388 216.777 215.401 217.034 231.097 208.822C243.653 202.252 262.162 184.205 269.846 176.003C296.559 153.086 270.43 136.316 268.219 135.039C229.94 108.894 198.533 77.1109 187.615 64.4875C206.049 81.4501 241.269 107.43 263.447 119.223C291.168 133.964 329.308 146.715 332.031 144.917C334.21 143.479 337.762 138.396 339.266 136.034C338.516 138.55 336.358 144.719 333.731 149.269C298.529 188.35 265.666 210.243 252.512 216.973C241.988 222.357 231.181 223.757 227.093 223.784C223.757 241.238 216.023 280.758 211.777 299.203C211.288 301.327 210.839 303.308 210.418 305.16L210.415 305.175L210.413 305.182C206.272 323.429 204.974 329.15 197.228 334.619C188.693 340.646 160.847 333.416 142.507 325.777C124.167 318.137 88.8037 291.822 82.986 277.088C78.3318 265.3 85.9791 255.363 90.3845 251.868ZM173.545 195.396C173.579 195.523 174.248 196.152 175.43 197.123C174.233 195.954 173.521 195.304 173.545 195.396Z" fill="url(#paint0_radial_205_31)"/>
<defs>
<radialGradient id="paint0_radial_205_31" cx="0" cy="0" r="1" gradientUnits="userSpaceOnUse" gradientTransform="translate(18.5 -12.5) rotate(51.9199) scale(563.426)">
<stop stop-color="#FFA370"/>
<stop offset="0.665423" stop-color="#2D1000"/>
</radialGradient>
</defs>
</svg>
